<svg width="210" height="80" viewBox="0 0 210 80" fill="none" xmlns="http://www.w3.org/2000/svg">
<g clip-path="url(#clip0_3_1268)">
<path d="M7.34767 5.62421C7.88613 1.65497 12.0277 -0.738871 15.7354 0.781128C22.8246 3.68267 29.4461 7.61497 35.3846 12.4519L39.2 15.5596L8.41228 33.335L7.62767 28.4765C6.40921 20.9134 6.3169 13.215 7.34767 5.62421Z" fill="#45C3FF"/>
<path d="M80.3385 45.1666C80.3385 67.0405 63.8615 78.4743 43.5323 78.4743C23.2062 78.4743 6.72925 67.0405 6.72925 45.1666C6.72925 23.2928 23.2062 5.55737 43.5323 5.55737C63.8615 5.55737 80.3385 23.2928 80.3385 45.1666Z" fill="#45C3FF"/>
<path d="M24.0431 36.2001C25.2215 35.6801 26.5969 36.2124 27.12 37.3908C27.4461 38.1293 27.8554 38.5847 28.2831 38.8647C28.7107 39.1447 29.2923 39.3354 30.0984 39.3354C30.9077 39.3354 31.4892 39.1447 31.9169 38.8647C32.3446 38.5847 32.7538 38.1293 33.08 37.3908C33.6031 36.2124 34.9784 35.6801 36.1569 36.2001C37.3354 36.7201 37.8707 38.0985 37.3507 39.277C36.7138 40.7201 35.7569 41.9324 34.4646 42.7754C33.1723 43.6154 31.6769 44.0001 30.0984 44.0001C28.5231 44.0001 27.0277 43.6154 25.7354 42.7754C24.4431 41.9324 23.4861 40.7201 22.8492 39.277C22.3292 38.0985 22.8615 36.7201 24.0431 36.2001Z" fill="white"/>
<path d="M50.9046 36.2001C52.0861 35.6801 53.4615 36.2124 53.9815 37.3908C54.3107 38.1293 54.72 38.5847 55.1476 38.8647C55.5753 39.1447 56.1569 39.3354 56.963 39.3354C57.7723 39.3354 58.3538 39.1447 58.7815 38.8647C59.2092 38.5847 59.6184 38.1293 59.9446 37.3908C60.4646 36.2124 61.843 35.6801 63.0215 36.2001C64.203 36.7201 64.7353 38.0985 64.2153 39.277C63.5784 40.7201 62.6215 41.9324 61.3292 42.7754C60.0369 43.6154 58.5415 44.0001 56.963 44.0001C55.3876 44.0001 53.8923 43.6154 52.5999 42.7754C51.3076 41.9324 50.3507 40.7201 49.7138 39.277C49.1938 38.0985 49.7261 36.7201 50.9046 36.2001Z" fill="white"/>
<path d="M79.4277 5.62176C78.8892 1.65253 74.7477 -0.741313 71.04 0.778687C63.9507 3.68023 57.3292 7.61253 51.3907 12.4495L47.5753 15.5571L78.363 33.3325L79.1477 28.4741C80.3661 20.911 80.4615 13.2125 79.4277 5.62176Z" fill="#45C3FF"/>
</g>
<path d="M99.7578 56.5V22.5606H105.906V51.3461H120.854V56.5H99.7578ZM137.028 56.9972C134.542 56.9972 132.388 56.4503 130.565 55.3565C128.742 54.2628 127.328 52.7326 126.323 50.7661C125.328 48.7996 124.831 46.5016 124.831 43.8722C124.831 41.2427 125.328 38.9392 126.323 36.9616C127.328 34.9841 128.742 33.4484 130.565 32.3546C132.388 31.2609 134.542 30.714 137.028 30.714C139.514 30.714 141.668 31.2609 143.491 32.3546C145.314 33.4484 146.723 34.9841 147.717 36.9616C148.722 38.9392 149.225 41.2427 149.225 43.8722C149.225 46.5016 148.722 48.7996 147.717 50.7661C146.723 52.7326 145.314 54.2628 143.491 55.3565C141.668 56.4503 139.514 56.9972 137.028 56.9972ZM137.061 52.1913C138.409 52.1913 139.536 51.8212 140.442 51.081C141.348 50.3297 142.022 49.3243 142.464 48.0649C142.917 46.8054 143.143 45.4023 143.143 43.8556C143.143 42.2978 142.917 40.8892 142.464 39.6297C142.022 38.3592 141.348 37.3483 140.442 36.5971C139.536 35.8458 138.409 35.4702 137.061 35.4702C135.68 35.4702 134.531 35.8458 133.614 36.5971C132.708 37.3483 132.029 38.3592 131.576 39.6297C131.134 40.8892 130.913 42.2978 130.913 43.8556C130.913 45.4023 131.134 46.8054 131.576 48.0649C132.029 49.3243 132.708 50.3297 133.614 51.081C134.531 51.8212 135.68 52.1913 137.061 52.1913ZM165.387 66.5758C163.233 66.5758 161.382 66.283 159.835 65.6974C158.289 65.1229 157.046 64.3496 156.107 63.3774C155.168 62.4051 154.516 61.328 154.151 60.1458L159.554 58.8366C159.797 59.3338 160.15 59.8254 160.614 60.3116C161.078 60.8087 161.702 61.2175 162.487 61.5379C163.282 61.8693 164.282 62.035 165.486 62.035C167.188 62.035 168.596 61.6207 169.712 60.7921C170.828 59.9746 171.386 58.6267 171.386 56.7486V51.9261H171.088C170.778 52.5448 170.325 53.1801 169.729 53.8319C169.143 54.4837 168.364 55.0306 167.392 55.4725C166.431 55.9145 165.221 56.1354 163.763 56.1354C161.807 56.1354 160.034 55.6769 158.443 54.7599C156.863 53.8319 155.604 52.4509 154.665 50.617C153.737 48.7719 153.273 46.4629 153.273 43.6899C153.273 40.8947 153.737 38.536 154.665 36.6136C155.604 34.6802 156.869 33.2164 158.46 32.2221C160.051 31.2167 161.824 30.714 163.779 30.714C165.271 30.714 166.497 30.9681 167.458 31.4763C168.431 31.9735 169.204 32.5756 169.779 33.2827C170.353 33.9787 170.789 34.636 171.088 35.2547H171.419V31.0455H177.335V56.9143C177.335 59.0908 176.816 60.8916 175.778 62.3168C174.739 63.742 173.319 64.8081 171.519 65.5152C169.718 66.2222 167.674 66.5758 165.387 66.5758ZM165.437 51.429C166.707 51.429 167.79 51.1196 168.685 50.5009C169.58 49.8823 170.259 48.9929 170.723 47.8329C171.187 46.6728 171.419 45.2808 171.419 43.6567C171.419 42.0548 171.187 40.6517 170.723 39.4474C170.27 38.2432 169.596 37.3097 168.701 36.6468C167.818 35.9729 166.729 35.6359 165.437 35.6359C164.1 35.6359 162.984 35.9839 162.089 36.6799C161.194 37.3759 160.52 38.3316 160.067 39.5469C159.614 40.7511 159.388 42.1211 159.388 43.6567C159.388 45.2145 159.614 46.5789 160.067 47.75C160.531 48.91 161.211 49.816 162.106 50.4678C163.012 51.1086 164.122 51.429 165.437 51.429ZM194.587 56.9972C192.101 56.9972 189.947 56.4503 188.124 55.3565C186.301 54.2628 184.887 52.7326 183.881 50.7661C182.887 48.7996 182.39 46.5016 182.39 43.8722C182.39 41.2427 182.887 38.9392 183.881 36.9616C184.887 34.9841 186.301 33.4484 188.124 32.3546C189.947 31.2609 192.101 30.714 194.587 30.714C197.073 30.714 199.227 31.2609 201.05 32.3546C202.873 33.4484 204.281 34.9841 205.276 36.9616C206.281 38.9392 206.784 41.2427 206.784 43.8722C206.784 46.5016 206.281 48.7996 205.276 50.7661C204.281 52.7326 202.873 54.2628 201.05 55.3565C199.227 56.4503 197.073 56.9972 194.587 56.9972ZM194.62 52.1913C195.968 52.1913 197.095 51.8212 198.001 51.081C198.907 50.3297 199.58 49.3243 200.022 48.0649C200.475 46.8054 200.702 45.4023 200.702 43.8556C200.702 42.2978 200.475 40.8892 200.022 39.6297C199.58 38.3592 198.907 37.3483 198.001 36.5971C197.095 35.8458 195.968 35.4702 194.62 35.4702C193.239 35.4702 192.09 35.8458 191.173 36.5971C190.267 37.3483 189.588 38.3592 189.135 39.6297C188.693 40.8892 188.472 42.2978 188.472 43.8556C188.472 45.4023 188.693 46.8054 189.135 48.0649C189.588 49.3243 190.267 50.3297 191.173 51.081C192.09 51.8212 193.239 52.1913 194.62 52.1913Z" fill="#45C3FF"/>
<defs>
<clipPath id="clip0_3_1268">
<rect width="83.0769" height="80" fill="white"/>
</clipPath>
</defs>
</svg>
